<?xml version="1.0" encoding="UTF-8"?>
<svg xmlns="http://www.w3.org/2000/svg" viewBox="0 0 113.33333 113.33333">
  <path fill="#2f6a63" stroke="#545151" stroke-width="0.541704" d="M 42.38855,20.242759 V 5.3322908 H 57.299015 72.209482 V 20.242759 35.153225 H 57.299015 42.38855 Z"/>
  <path fill="#6c4bd9" stroke="#545151" stroke-width="0.532894" d="M 79.686523,20.078092 V 5.1632184 H 94.111698 108.53688 V 20.078092 34.992963 H 94.111698 79.686523 Z"/>
  <path fill="#c2443a" stroke="#545151" stroke-width="0.532894" d="M 4.9949498,19.858015 V 4.9431409 H 19.420125 33.845302 V 19.858015 34.772886 H 19.420125 4.9949498 Z"/>
  <path fill="#4a4a4a" stroke="#545151" stroke-width="0.541704" d="M 42.716566,57.882262 V 42.971794 H 57.627031 72.537498 V 57.882262 72.792728 H 57.627031 42.716566 Z"/>
  <path fill="#a3445b" stroke="#545151" stroke-width="0.532894" d="M 80.014539,57.717595 V 42.802721 H 94.439714 108.8649 V 57.717595 72.632466 H 94.439714 80.014539 Z"/>
  <path fill="#6c4bd9" stroke="#545151" stroke-width="0.532894" d="M 5.3229656,57.497518 V 42.582644 H 19.748141 34.173318 V 57.497518 72.412389 H 19.748141 5.3229656 Z"/>
  <path fill="#3a6c2e" stroke="#545151" stroke-width="0.541704" d="M 42.828994,94.407424 V 79.496956 H 57.739459 72.649926 V 94.407424 109.31789 H 57.739459 42.828994 Z"/>
  <path fill="#5c3a9c" stroke="#545151" stroke-width="0.532894" d="M 80.126967,94.242757 V 79.327883 H 94.552142 108.97732 V 94.242757 109.15763 H 94.552142 80.126967 Z"/>
  <path fill="#c46827" stroke="#545151" stroke-width="0.532894" d="M 5.4353941,94.02268 V 79.107806 H 19.860569 34.285746 V 94.02268 108.93755 H 19.860569 5.4353941 Z"/>
</svg>
